<?xml version="1.0" encoding="utf-8"?>
<!-- Generator: Adobe Illustrator 24.0.0, SVG Export Plug-In . SVG Version: 6.00 Build 0)  -->
<svg version="1.0" id="Layer_1" xmlns="http://www.w3.org/2000/svg" xmlns:xlink="http://www.w3.org/1999/xlink" x="0px" y="0px"
	 viewBox="0 0 128 128" style="enable-background:new 0 0 128 128;" xml:space="preserve">
<style type="text/css">
	.st0{stroke:#ffffff;stroke-miterlimit:10;fill: #ffffff;}
</style>
<g>
	<path class="st0" d="M119.68,26.07l-93.41,93.41c-1.63,1.63-4.26,1.63-5.89,0L9.42,108.52c-1.63-1.63-1.63-4.26,0-5.89l93.41-93.41
		c1.63-1.63,4.26-1.63,5.89,0l10.96,10.96C121.31,21.8,121.31,24.44,119.68,26.07z"/>
	<path class="st0" d="M26.27,9.22l93.41,93.41c1.63,1.63,1.63,4.26,0,5.89l-10.96,10.96c-1.63,1.63-4.26,1.63-5.89,0L9.42,26.07
		c-1.63-1.63-1.63-4.26,0-5.89L20.38,9.22C22.01,7.59,24.64,7.59,26.27,9.22z"/>
</g>
</svg>
