<?xml version="1.0" encoding="utf-8"?>
<!-- Generator: Adobe Illustrator 24.0.0, SVG Export Plug-In . SVG Version: 6.00 Build 0)  -->
<svg version="1.0" id="Layer_1" xmlns="http://www.w3.org/2000/svg" xmlns:xlink="http://www.w3.org/1999/xlink" x="0px" y="0px"
	 viewBox="0 0 128 128" style="enable-background:new 0 0 128 128;" xml:space="preserve">
<style type="text/css">
	.st0{stroke:#ffffff;stroke-miterlimit:10;fill: #ffffff;}
</style>
<path class="st0" d="M112.94,35.3H14.37c-2.19,0-3.96-1.77-3.96-3.96V18.53c0-2.19,1.77-3.96,3.96-3.96h98.57
	c2.19,0,3.96,1.77,3.96,3.96v12.81C116.9,33.53,115.13,35.3,112.94,35.3z"/>
<path class="st0" d="M112.41,74.77H13.84c-2.19,0-3.96-1.77-3.96-3.96V58c0-2.19,1.77-3.96,3.96-3.96h98.57
	c2.19,0,3.96,1.77,3.96,3.96v12.81C116.37,73,114.6,74.77,112.41,74.77z"/>
<path class="st0" d="M112.94,114.24H14.37c-2.19,0-3.96-1.77-3.96-3.96V97.47c0-2.19,1.77-3.96,3.96-3.96h98.57
	c2.19,0,3.96,1.77,3.96,3.96v12.81C116.9,112.47,115.13,114.24,112.94,114.24z"/>
</svg>
